<?xml version="1.0" encoding="UTF-8"?>
<svg width="40px" height="40px" viewBox="0 0 40 40" version="1.1" xmlns="http://www.w3.org/2000/svg" xmlns:xlink="http://www.w3.org/1999/xlink">
    <!-- Generator: Sketch 63 (92445) - https://sketch.com -->
    <title>回到首页备份</title>
    <desc>Created with Sketch.</desc>
    <g id="页面-1" stroke="none" stroke-width="1" fill="none" fill-rule="evenodd">
        <g id="悬浮按钮" transform="translate(-257.000000, -204.000000)">
            <g id="回到首页备份" transform="translate(257.000000, 204.000000)">
                <circle id="椭圆形" stroke="#F7F8FA" fill="#FFFFFF" cx="20" cy="20" r="19.5"></circle>
                <g id="首页" transform="translate(8.000000, 8.000000)" fill-rule="nonzero">
                    <rect id="矩形" fill="#000000" opacity="0" x="0" y="0" width="24" height="24"></rect>
                    <path d="M20.88636,22.08 L15.09264,22.08 C14.6986206,22.08 14.3791863,21.7606194 14.37912,21.3666 L14.37912,17.81772 L10.36476,17.81772 L10.36476,21.3666 C10.3647282,21.5558373 10.2895234,21.7373112 10.15569,21.8710997 C10.0218565,22.0048881 9.84035727,22.08 9.65112,22.08 L2.87364,22.08 C2.68440273,22.08 2.50290348,22.0048881 2.36907002,21.8710997 C2.23523656,21.7373112 2.16,21.5558373 2.16,21.3666 L2.16,8.1972 C2.16,7.94992761 2.28815191,7.72031731 2.49852,7.59036 L11.50488,2.0256 C11.7348022,1.8835991 12.0251978,1.8835991 12.25512,2.0256 L21.26148,7.59024 C21.4718671,7.72023632 21.6,7.94989094 21.6,8.1972 L21.6,21.3666 C21.6,21.5558373 21.5247634,21.7373112 21.39093,21.8710997 C21.2570965,22.0048881 21.0755973,22.08 20.88636,22.08 L20.88636,22.08 Z M15.80628,20.6532 L20.17284,20.6532 L20.17284,8.59488 L11.88,3.47124 L3.58716,8.59524 L3.58716,20.6532 L8.9376,20.6532 L8.9376,17.1042 C8.93763182,16.9149627 9.01283656,16.7334888 9.14667002,16.5997003 C9.28050348,16.4659119 9.46200273,16.3907682 9.65124,16.3908 L15.09276,16.3908 C15.2819973,16.3907682 15.4634965,16.4659119 15.59733,16.5997003 C15.7311634,16.7334888 15.8063682,16.9149627 15.8064,17.1042 L15.8064,20.6532 L15.80628,20.6532 Z" id="形状" fill="#333333"></path>
                    <polygon id="路径" fill="#999999" points="6.72816 14.34156 5.30196 14.34156 5.30196 9.49356 10.0638 6.74196 10.77804 7.9752 6.72816 10.3152 6.72816 14.34156"></polygon>
                </g>
            </g>
        </g>
    </g>
</svg>