<?xml version="1.0" encoding="UTF-8"?>
<svg width="15px" height="18px" viewBox="0 0 15 18" version="1.1" xmlns="http://www.w3.org/2000/svg" xmlns:xlink="http://www.w3.org/1999/xlink">
    <!-- Generator: Sketch 63 (92445) - https://sketch.com -->
    <title>密码备份</title>
    <desc>Created with Sketch.</desc>
    <g id="页面-2" stroke="none" stroke-width="1" fill="none" fill-rule="evenodd">
        <g id="切图" transform="translate(-846.000000, -341.000000)">
            <g id="密码备份" transform="translate(846.000000, 341.000000)">
                <rect id="矩形" stroke="#666666" x="0.5" y="6.5" width="14" height="11" rx="2"></rect>
                <path d="M7.5,0.5 C6.3954305,0.5 5.3954305,0.94771525 4.67157288,1.67157288 C3.94771525,2.3954305 3.5,3.3954305 3.5,4.5 L3.5,6.5 L11.5,6.5 L11.5,4.5 C11.5,3.3954305 11.0522847,2.3954305 10.3284271,1.67157288 C9.6045695,0.94771525 8.6045695,0.5 7.5,0.5 Z" id="矩形-copy-2" stroke="#666666"></path>
                <path d="M7.5,9 C8.32842712,9 9,9.67157288 9,10.5 C9,11.1528467 8.58293192,11.7082819 8.00070296,11.9143985 L8,13.5 C8,13.7761424 7.77614237,14 7.5,14 C7.22385763,14 7,13.7761424 7,13.5 L7.00029246,11.9147505 C6.41754351,11.7089149 6,11.1532187 6,10.5 C6,9.67157288 6.67157288,9 7.5,9 Z" id="合并形状" fill="#CCCCCC"></path>
            </g>
        </g>
    </g>
</svg>