<?xml version="1.0" encoding="UTF-8"?>
<svg width="12px" height="12px" viewBox="0 0 12 12" version="1.1" xmlns="http://www.w3.org/2000/svg" xmlns:xlink="http://www.w3.org/1999/xlink">
    <!-- Generator: Sketch 63 (92445) - https://sketch.com -->
    <title>完成</title>
    <desc>Created with Sketch.</desc>
    <g id="页面-2" stroke="none" stroke-width="1" fill="none" fill-rule="evenodd">
        <g id="切图" transform="translate(-64.000000, -341.000000)" fill="#0091FF" fill-rule="nonzero">
            <g id="完成" transform="translate(62.000000, 339.000000)">
                <rect id="矩形" opacity="0" x="0" y="0" width="16" height="16"></rect>
                <path d="M13.0853333,8.36666667 C13.0067409,8.35195775 12.9255345,8.36944886 12.8599665,8.41520857 C12.7943984,8.46096827 12.7499698,8.53115749 12.7366667,8.61 C12.3037057,11.0466529 10.1834833,12.8205329 7.70866667,12.8166667 C4.892,12.8166667 2.60066667,10.5253333 2.60066667,7.70866667 C2.59894013,5.46191928 4.06585175,3.47797717 6.21444945,2.82116309 C8.36304716,2.16434901 10.6885235,2.98897971 11.9433333,4.85266667 C12.3423644,5.44090002 12.6127043,6.10675411 12.7366667,6.80666667 C12.7687283,6.96691108 12.9229121,7.07220517 13.0838367,7.04375342 C13.2447612,7.01530167 13.3534942,6.8635234 13.3286667,6.702 C13.1905089,5.91866152 12.8881031,5.17343931 12.4413333,4.51533333 C11.380227,2.94169274 9.60596997,1.99883758 7.708,1.99999893 C6.19392031,1.99964615 4.74176152,2.60100089 3.67120799,3.67167946 C2.60065446,4.74235802 1.99946932,6.19458703 1.99999965,7.70866667 C1.99999965,10.8566667 4.56066667,13.4173419 7.70866667,13.4173419 C10.4748166,13.4221111 12.8448285,11.4395104 13.3286667,8.716 C13.3428141,8.63747416 13.3250967,8.55654745 13.2794325,8.49111628 C13.2337683,8.4256851 13.1639197,8.38114054 13.0853333,8.36733333 M10.1646667,6.086 L7.04,9.21133333 L5.16866667,7.34 C5.05323027,7.22962454 4.87078976,7.23159557 4.75776495,7.34443925 C4.64474014,7.45728293 4.6424765,7.63972005 4.75266667,7.75533333 L6.81866667,9.82066667 C6.82066667,9.82333334 6.824,9.824 6.826,9.826 C6.82866667,9.82866667 6.82933333,9.83266667 6.83266667,9.83533333 C6.88769744,9.89049628 6.96241455,9.92149765 7.04033334,9.92149765 C7.11825212,9.92149765 7.19296924,9.89049628 7.248,9.83533333 L10.5806667,6.502 C10.6955419,6.38712477 10.6955419,6.20087524 10.5806667,6.08600001 C10.4657914,5.97112479 10.2795419,5.97112478 10.1646667,6.086" id="形状"></path>
            </g>
        </g>
    </g>
</svg>