<?xml version="1.0" encoding="UTF-8"?>
<svg width="92px" height="92px" viewBox="0 0 92 92" version="1.1" xmlns="http://www.w3.org/2000/svg" xmlns:xlink="http://www.w3.org/1999/xlink">
    <!-- Generator: Sketch 63 (92445) - https://sketch.com -->
    <title>已使用备份 4</title>
    <desc>Created with Sketch.</desc>
    <g id="页面-2" stroke="none" stroke-width="1" fill="none" fill-rule="evenodd">
        <g id="切图" transform="translate(-839.000000, -45.000000)">
            <g id="已使用备份-2" transform="translate(790.000000, 166.000000) rotate(-45.000000) translate(-790.000000, -166.000000) translate(744.000000, 120.000000)" stroke="#DCDDE0">
                <circle id="椭圆形" stroke-width="2" cx="46" cy="46" r="45"></circle>
                <circle id="椭圆形" stroke-width="0.5" cx="46" cy="46" r="39.75"></circle>
            </g>
            <g id="已使用备份-4" transform="translate(885.000000, 91.000000) rotate(-45.000000) translate(-885.000000, -91.000000) translate(839.000000, 45.000000)">
                <circle id="椭圆形" stroke="#DCDDE0" stroke-width="2" cx="46" cy="46" r="45"></circle>
                <circle id="椭圆形" stroke="#DCDDE0" stroke-width="0.5" cx="46" cy="46" r="39.75"></circle>
                <text id="已作废" font-family="PingFangSC-Medium, PingFang SC" font-size="20" font-weight="400" line-spacing="20" fill="#C8C9CC">
                    <tspan x="16" y="58">已作废</tspan>
                </text>
                <path d="M27.0114826,30.2835167 C32.3371609,24.2915249 38.8333333,21.295529 46.5,21.295529 C54.1666667,21.295529 61,24.2915249 67,30.2835167" id="路径-5" stroke="#DCDDE0" stroke-linecap="round"></path>
                <polygon id="星形" fill="#DCDDE0" points="25.5 23.75 22.8549664 25.1405765 23.3601228 22.1952882 21.2202457 20.1094235 24.1774832 19.6797118 25.5 17 26.8225168 19.6797118 29.7797543 20.1094235 27.6398772 22.1952882 28.1450336 25.1405765"></polygon>
                <polygon id="星形备份-3" fill="#DCDDE0" points="25.5 72.75 22.8549664 74.1405765 23.3601228 71.1952882 21.2202457 69.1094235 24.1774832 68.6797118 25.5 66 26.8225168 68.6797118 29.7797543 69.1094235 27.6398772 71.1952882 28.1450336 74.1405765"></polygon>
                <polygon id="星形备份" fill="#DCDDE0" points="46.5 15.75 43.8549664 17.1405765 44.3601228 14.1952882 42.2202457 12.1094235 45.1774832 11.6797118 46.5 9 47.8225168 11.6797118 50.7797543 12.1094235 48.6398772 14.1952882 49.1450336 17.1405765"></polygon>
                <polygon id="星形备份-4" fill="#DCDDE0" points="46.5 80.75 43.8549664 82.1405765 44.3601228 79.1952882 42.2202457 77.1094235 45.1774832 76.6797118 46.5 74 47.8225168 76.6797118 50.7797543 77.1094235 48.6398772 79.1952882 49.1450336 82.1405765"></polygon>
                <polygon id="星形备份-2" fill="#DCDDE0" points="68.5 23.75 65.8549664 25.1405765 66.3601228 22.1952882 64.2202457 20.1094235 67.1774832 19.6797118 68.5 17 69.8225168 19.6797118 72.7797543 20.1094235 70.6398772 22.1952882 71.1450336 25.1405765"></polygon>
                <polygon id="星形备份-5" fill="#DCDDE0" points="68.5 72.75 65.8549664 74.1405765 66.3601228 71.1952882 64.2202457 69.1094235 67.1774832 68.6797118 68.5 66 69.8225168 68.6797118 72.7797543 69.1094235 70.6398772 71.1952882 71.1450336 74.1405765"></polygon>
                <path d="M27.0114826,70.9879877 C33.0038275,64.9959959 39.5,62 46.5,62 C53.5,62 60.3333333,64.9959959 67,70.9879877" id="路径-5备份" stroke="#DCDDE0" stroke-linecap="round" transform="translate(47.005741, 66.493994) scale(1, -1) translate(-47.005741, -66.493994) "></path>
            </g>
        </g>
    </g>
</svg>