<?xml version="1.0" encoding="UTF-8"?>
<svg width="9px" height="12px" viewBox="0 0 9 12" version="1.1" xmlns="http://www.w3.org/2000/svg" xmlns:xlink="http://www.w3.org/1999/xlink">
    <!-- Generator: Sketch 63 (92445) - https://sketch.com -->
    <title>地点定位_o</title>
    <desc>Created with Sketch.</desc>
    <g id="页面-2" stroke="none" stroke-width="1" fill="none" fill-rule="evenodd">
        <g id="切图" transform="translate(-66.000000, -398.000000)" fill-rule="nonzero">
            <g id="地点定位_o" transform="translate(62.000000, 396.000000)">
                <rect id="矩形" fill="#000000" opacity="0" x="0" y="0" width="16" height="16"></rect>
                <path d="M12,13.3333333 L12,12 L10.6666667,12 L11.3333333,11.3333333 L12.6666667,11.3333333 L12.6666667,14 L4,14 L4,11.3333333 L5.33333333,11.3333333 L6,12 L4.66666667,12 L4.66666667,13.3333333 L12,13.3333333 Z M11.0666667,8.8 C11.6666667,8.13333333 12,7.26666667 12,6.33333333 C12,4.33333333 10.3333333,2.66666667 8.33333333,2.66666667 C6.33333333,2.66666667 4.66666667,4.33333333 4.66666667,6.33333333 C4.66666667,7.26666666 5,8.13333333 5.6,8.8 L8.33333333,11.5333333 L11.0666667,8.8 L11.0666667,8.8 Z M11.3333333,9.46666667 L8.4,12.4 L5.33333333,9.46666667 C4.53333333,8.66666667 4,7.6 4,6.33333333 C4,3.93333333 5.93333333,2 8.33333333,2 C10.7333333,2 12.6666667,3.93333333 12.6666667,6.33333333 C12.6666667,7.46666666 12.2666667,8.46666666 11.5333333,9.26666667 L11.3333333,9.46666667 Z M8.33333333,8 C7.4,8 6.66666667,7.26666667 6.66666667,6.33333333 C6.66666667,5.39999998 7.4,4.66666667 8.33333333,4.66666667 C9.26666666,4.66666667 10,5.4 10,6.33333333 C10,7.26666666 9.26666667,8 8.33333333,8 Z M8.33333333,7.33333333 C8.86666666,7.33333333 9.33333333,6.86666666 9.33333333,6.33333333 C9.33333333,5.8 8.86666667,5.33333333 8.33333333,5.33333333 C7.79999998,5.33333333 7.33333333,5.8 7.33333333,6.33333333 C7.33333333,6.86666666 7.8,7.33333333 8.33333333,7.33333333 Z" id="形状" fill="#0091FF"></path>
            </g>
        </g>
    </g>
</svg>