<svg 
 xmlns="http://www.w3.org/2000/svg"
 xmlns:xlink="http://www.w3.org/1999/xlink"
 width="44px" height="41px">
<path fill-rule="evenodd"
 d="M43.462,21.051 C42.927,21.574 42.890,21.531 41.269,21.531 L38.069,21.532 L38.069,37.204 C38.069,39.595 36.718,40.992 34.248,40.992 L29.774,40.992 L28.039,40.962 L28.039,27.420 C28.039,25.791 27.138,25.382 26.106,25.382 L18.165,25.382 C17.007,25.382 16.091,25.835 16.091,27.342 L16.091,40.979 L13.787,40.992 L9.886,40.992 C7.540,40.992 6.066,39.746 6.066,36.976 L6.066,21.538 L2.769,21.539 C1.030,21.539 0.929,21.287 0.514,20.814 C-0.308,19.879 -0.261,18.714 1.828,17.105 L20.149,1.146 C20.691,0.760 21.238,0.008 21.930,0.008 L22.219,0.008 C22.911,0.008 23.459,0.605 24.001,0.991 L42.148,17.097 C43.895,18.186 44.551,19.986 43.462,21.051 Z"/>
</svg>