<?xml version="1.0" encoding="UTF-8"?>
<svg width="14px" height="14px" viewBox="0 0 14 14" version="1.1" xmlns="http://www.w3.org/2000/svg" xmlns:xlink="http://www.w3.org/1999/xlink">
    <!-- Generator: Sketch 63 (92445) - https://sketch.com -->
    <title>地址管理</title>
    <desc>Created with Sketch.</desc>
    <g id="页面-2" stroke="none" stroke-width="1" fill="none" fill-rule="evenodd" opacity="0.697242374">
        <g id="切图" transform="translate(-26.000000, -450.000000)" fill-rule="nonzero">
            <g id="地址管理" transform="translate(25.000000, 449.000000)">
                <rect id="矩形" fill="#000000" opacity="0" x="0" y="0" width="16" height="16"></rect>
                <path d="M6.36666667,7.63333333 C6.36660901,8.22881441 6.68426128,8.7790863 7.19995342,9.07684348 C7.71564556,9.37460067 8.35102112,9.37460067 8.86671326,9.07684348 C9.3824054,8.7790863 9.70005766,8.22881441 9.7,7.63333333 C9.70005766,7.03785224 9.3824054,6.48758036 8.86671326,6.18982317 C8.35102112,5.89206598 7.71564556,5.89206598 7.19995342,6.18982317 C6.68426128,6.48758036 6.36660901,7.03785224 6.36666667,7.63333333 L6.36666667,7.63333333 Z" id="路径" fill="#32C5FF"></path>
                <path d="M8,1 C4.13333333,1 1,4.13333333 1,8 C1,11.7 3.86666667,14.7 7.5,14.9666667 L7.5,12.8666667 C6.66666667,11.9333333 4.36666667,9.26666667 4.36666667,7.63333333 C4.36666667,5.6 6,3.96666666 8.03333333,3.96666667 C10.0666667,3.96666669 11.7,5.6 11.7,7.63333333 C11.7,8.6 10.9333333,10.0333333 9.43333333,11.8666667 L8.5,12.9333333 L8.5,15 C12.1333333,14.7333333 15,11.7 15,8 C15,4.13333333 11.8666667,1 8,1 Z" id="路径" fill="#32C5FF"></path>
            </g>
        </g>
    </g>
</svg>