<?xml version="1.0" encoding="UTF-8"?>
<svg width="14px" height="15px" viewBox="0 0 14 15" version="1.1" xmlns="http://www.w3.org/2000/svg" xmlns:xlink="http://www.w3.org/1999/xlink">
    <!-- Generator: Sketch 63 (92445) - https://sketch.com -->
    <title>联系客服</title>
    <desc>Created with Sketch.</desc>
    <g id="页面-2" stroke="none" stroke-width="1" fill="none" fill-rule="evenodd" opacity="0.703404018">
        <g id="切图" transform="translate(-26.000000, -548.000000)" fill-rule="nonzero">
            <g id="联系客服" transform="translate(25.000000, 547.000000)">
                <rect id="矩形" fill="#000000" opacity="0" x="0" y="0" width="16" height="16"></rect>
                <path d="M8,1.0545 C6.7335,1.0545 5.51,1.391 4.433,2.031 C3.8305,1.37 2.9535,1 1.9585,1 C1.776,1 1.608,1.099 1.52,1.2595 C1.432,1.4195 1.4385,1.6145 1.5365,1.7685 C1.5415,1.7765 2.023,2.5445 2.175,3.7715 C2.048,4.198 1.7575,4.789 1.59,5.2455 C1.232,6.2215 1.0035,7.0645 1.0035,8.0505 C1.0035,11.908 4.142,15.047 7.9995,15.047 C11.857,15.047 14.995,11.9085 14.995,8.0505 C14.9955,4.193 11.8575,1.0545 8,1.0545 Z M9,7.5 C9,7.914 8.664,8.25 8.25,8.25 C7.836,8.25 7.5,7.914 7.5,7.5 L7.5,6.5 C7.5,6.0855 7.836,5.75 8.25,5.75 C8.664,5.75 9,6.0855 9,6.5 L9,7.5 Z M11.9845,7.5 C11.9845,7.914 11.6485,8.25 11.2345,8.25 C10.8205,8.25 10.4845,7.914 10.4845,7.5 L10.4845,6.5 C10.4845,6.0855 10.8205,5.75 11.2345,5.75 C11.6485,5.75 11.9845,6.0855 11.9845,6.5 L11.9845,7.5 Z" id="形状" fill="#6236FF"></path>
            </g>
        </g>
    </g>
</svg>