<?xml version="1.0" encoding="UTF-8"?>
<svg width="15px" height="15px" viewBox="0 0 15 15" version="1.1" xmlns="http://www.w3.org/2000/svg" xmlns:xlink="http://www.w3.org/1999/xlink">
    <!-- Generator: Sketch 63 (92445) - https://sketch.com -->
    <title>我的k米</title>
    <desc>Created with Sketch.</desc>
    <g id="页面-2" stroke="none" stroke-width="1" fill="none" fill-rule="evenodd" opacity="0.697242374">
        <g id="切图" transform="translate(-26.000000, -352.000000)" fill-rule="nonzero">
            <g id="我的k米" transform="translate(25.000000, 351.000000)">
                <rect id="矩形" fill="#000000" opacity="0" x="0" y="0" width="16" height="16"></rect>
                <path d="M8.05,1.05 C4.2,1.05 1.05,4.2 1.05,8.05 C1.05,11.9 4.2,15.05 8.05,15.05 C11.9,15.05 15.05,11.9 15.05,8.05 C15.05,4.2 11.9,1.05 8.05,1.05 Z M7.33333332,9.66666668 L7.33333332,12 L5,12 L5,5 L7.33333332,5 L7.33333332,7.33333332 L8.03333332,7.33333332 L10.3666666,5 L12,6.63333332 L10.1333333,8.5 L12,10.25 L10.3666666,11.8833333 L8.03333332,9.66666668 L7.33333332,9.66666668 Z" id="形状" fill="#F7B500"></path>
            </g>
        </g>
    </g>
</svg>