<?xml version="1.0" encoding="UTF-8"?>
<svg width="14px" height="15px" viewBox="0 0 14 15" version="1.1" xmlns="http://www.w3.org/2000/svg" xmlns:xlink="http://www.w3.org/1999/xlink">
    <!-- Generator: Sketch 63 (92445) - https://sketch.com -->
    <title>常见问题</title>
    <desc>Created with Sketch.</desc>
    <g id="页面-2" stroke="none" stroke-width="1" fill="none" fill-rule="evenodd" opacity="0.697242374">
        <g id="切图" transform="translate(-26.000000, -503.000000)" fill-rule="nonzero">
            <g id="常见问题" transform="translate(25.000000, 503.000000)">
                <rect id="矩形" fill="#000000" opacity="0" x="0" y="0" width="16" height="16"></rect>
                <path d="M10.5,1.45 C10.35,1.4 10.15,1.35 10,1.3 C9.35,1.1 8.7,1 8,1 C7.15,1 6.3,1.15 5.5,1.45 C5.35,1.5 5.15,1.6 5,1.65 C4.8,1.8 4.6,1.9 4.45,2 C4.15,1.7 3.85,1.45 3.5,1.3 C3.35,1.2 3.15,1.15 3,1.1 C2.65,1 2.3,0.95 1.95,0.95 C1.8,0.95 1.6,1.05 1.5,1.2 C1.4,1.35 1.4,1.55 1.5,1.7 C1.5,1.7 2,2.5 2.15,3.7 L1.6,5.1 C1.2,6.05 1,7 1,8 C1,9.9 1.75,11.6 3,12.9 C3.15,13.05 3.35,13.2 3.5,13.35 C3.95,13.75 4.45,14.05 5,14.3 C5.15,14.4 5.35,14.45 5.5,14.5 C6.3,14.8 7.1,14.95 8,14.95 C8.7,14.95 9.35,14.85 10,14.65 C10.15,14.6 10.35,14.55 10.5,14.5 C13.1,13.5 15,10.95 15,7.95 C15,4.95 13.1,2.5 10.5,1.45 Z M8.6,12.15 C8.45,12.3 8.25,12.35 8.05,12.35 C7.85,12.35 7.65,12.25 7.5,12.15 C7.35,12 7.3,11.8 7.3,11.6 C7.3,11.4 7.4,11.2 7.5,11.05 C7.8,10.75 8.3,10.75 8.55,11.05 C8.7,11.2 8.75,11.4 8.75,11.6 C8.85,11.8 8.75,12 8.6,12.15 Z M9,8.35 C8.7,8.45 8.55,8.75 8.5,9.05 L8.5,9.45 C8.5,9.75 8.25,10.05 8,10.05 C8,10.05 8,10.05 8,10.05 C7.7,10.05 7.5,9.75 7.5,9.45 L7.5,9.05 C7.5,8.35 7.95,7.7 8.6,7.4 C9.3,7.1 9.65,6.4 9.45,5.65 C9.35,5.1 8.9,4.65 8.35,4.55 C7.8,4.4 7.2,4.6 6.85,5 C6.95,5.05 7.05,5.15 7.2,5.3 C7.4,5.5 7.45,5.8 7.25,6 C7.05,6.2 6.75,6.25 6.55,6.05 C6.4,5.9 6.3,5.85 6.2,5.75 C5.95,5.55 5.5,5.2 5.95,4.6 C6.55,3.75 7.6,3.35 8.6,3.6 C9.5,3.8 10.25,4.55 10.45,5.45 C10.7,6.65 10.1,7.85 9,8.35 Z" id="形状" fill="#FF4444"></path>
            </g>
        </g>
    </g>
</svg>