<?xml version="1.0" encoding="UTF-8"?>
<svg width="15px" height="15px" viewBox="0 0 15 15" version="1.1" xmlns="http://www.w3.org/2000/svg" xmlns:xlink="http://www.w3.org/1999/xlink">
    <!-- Generator: Sketch 63 (92445) - https://sketch.com -->
    <title>我的推荐</title>
    <desc>Created with Sketch.</desc>
    <g id="页面-2" stroke="none" stroke-width="1" fill="none" fill-rule="evenodd" opacity="0.697242374">
        <g id="切图" transform="translate(-26.000000, -396.000000)" fill-rule="nonzero">
            <g id="我的推荐" transform="translate(25.000000, 395.000000)">
                <rect id="矩形" fill="#000000" opacity="0" x="0" y="0" width="16" height="16"></rect>
                <path d="M8.05,1.05 C4.2,1.05 1.05,4.2 1.05,8.05 C1.05,11.9 4.2,15.05 8.05,15.05 C11.9,15.05 15.05,11.9 15.05,8.05 C15.05,4.2 11.9,1.05 8.05,1.05 Z M11.4,7.7 L10.05,9.05 L10.35,10.95 C10.4,11.15 10.3,11.35 10.15,11.45 C10.05,11.5 9.95,11.55 9.85,11.55 C9.75,11.55 9.7,11.55 9.6,11.5 L8,10.6 L6.4,11.5 C6.25,11.6 6.05,11.6 5.85,11.45 C5.7,11.35 5.6,11.15 5.65,10.95 L5.95,9.05 L4.65,7.7 C4.5,7.55 4.45,7.35 4.55,7.2 C4.6,7 4.75,6.9 4.95,6.85 L6.75,6.6 L7.55,4.85 C7.65,4.7 7.8,4.55 8,4.55 C8.2,4.55 8.35,4.65 8.45,4.85 L9.25,6.6 L11.05,6.9 C11.25,6.95 11.4,7.05 11.45,7.25 C11.55,7.35 11.55,7.55 11.4,7.7 Z" id="形状" fill="#44D7B6"></path>
            </g>
        </g>
    </g>
</svg>