<?xml version="1.0" encoding="UTF-8"?>
<svg width="21px" height="21px" viewBox="0 0 21 21" version="1.1" xmlns="http://www.w3.org/2000/svg" xmlns:xlink="http://www.w3.org/1999/xlink">
    <!-- Generator: Sketch 63 (92445) - https://sketch.com -->
    <title>设置/管理</title>
    <desc>Created with Sketch.</desc>
    <g id="页面-2" stroke="none" stroke-width="1" fill="none" fill-rule="evenodd">
        <g id="切图" transform="translate(-279.000000, -387.000000)" fill-rule="nonzero">
            <g id="设置/管理" transform="translate(276.000000, 383.000000)">
                <rect id="矩形" fill="#000000" opacity="0" x="0" y="0" width="28" height="28"></rect>
                <path d="M18.312,15.9856667 C18.0214098,15.8677418 17.6901731,16.0070178 17.5711667,16.2971667 C16.9087503,17.9082606 15.3347598,18.956049 13.5928333,18.9455 C11.2291666,18.9455 9.30416665,17.045 9.30416668,14.7081667 C9.30416668,13.8588334 9.55616668,13.0398334 10.0345,12.341 C10.8375139,11.1662823 12.169885,10.4651492 13.5928333,10.4685 C15.0208333,10.4685 16.3508333,11.1685 17.1511667,12.3375 C17.3168334,12.5836667 17.4591667,12.8461667 17.5711667,13.1168333 C17.6916012,13.4055572 18.0217406,13.5438518 18.312,13.4271667 C18.4516888,13.3707511 18.563113,13.2609593 18.6215839,13.1221183 C18.6800549,12.9832772 18.6807445,12.8268512 18.6235,12.6875 C17.779883,10.6539097 15.7932946,9.32967098 13.5916667,9.33332222 C11.7919924,9.32970222 10.1071415,10.2169026 9.09183332,11.7028333 C8.487199,12.5882798 8.1646747,13.6359754 8.1666575,14.7081667 C8.1666575,17.6703334 10.6015,20.0819141 13.5928333,20.0819141 C15.7980039,20.0938459 17.789359,18.7650446 18.6246667,16.7241667 C18.6814794,16.5848037 18.680432,16.4285493 18.6217562,16.2899604 C18.5630803,16.1513715 18.4516108,16.0418677 18.312,15.9856667 M20.9241667,15.7803333 C20.8061818,15.816558 20.70515,15.8939881 20.6395,15.9985 C20.5862827,16.058622 20.5482736,16.1306392 20.5286667,16.2085 C20.342,17.0135 20.0153334,17.7741667 19.5615,18.4718333 C19.4410843,18.6591927 19.4552216,18.902826 19.5965,19.075 L20.3431667,20.363 L19.222,21.4841667 L17.8791667,20.7106667 C17.7578757,20.6408381 17.6133323,20.6235603 17.479,20.6628333 C17.3891566,20.6613967 17.3005558,20.6839496 17.2223333,20.7281667 C16.5539175,21.1289404 15.8250527,21.4189105 15.064,21.5868333 C14.8537617,21.6122135 14.6796143,21.7619434 14.623,21.966 L14.2228333,23.4593333 L12.6361667,23.4593333 L12.2336667,21.9531667 C12.1775567,21.746941 12.0005511,21.5963472 11.788,21.574 C11.7845,21.574 11.7833333,21.5716667 11.781,21.5705 C10.9890476,21.3837933 10.2341696,21.0651196 9.548,20.6278333 C9.51766668,20.6091666 9.48383332,20.6033333 9.45233332,20.5916667 C9.4325,20.5835 9.415,20.5741667 9.394,20.5683333 C9.33980948,20.5552673 9.2838202,20.5513244 9.22833332,20.5566667 L9.205,20.5578333 C9.11546134,20.5677453 9.03013431,20.6011516 8.95766668,20.6546667 L7.67433332,21.3955 L6.54966668,20.2743333 L7.33366668,18.9233333 C7.44407324,18.7311524 7.41866912,18.4898133 7.27066668,18.3248333 C7.266,18.3178333 7.266,18.3108333 7.2625,18.3026667 C6.86480279,17.6554282 6.57407147,16.9482971 6.4015,16.2085 C6.39566668,16.1816667 6.37816668,16.163 6.37,16.1385 C6.32348292,15.9638645 6.18818126,15.8267884 6.01416668,15.778 L4.5395,15.3778333 L4.5395,13.7888333 L6.01416668,13.3886667 C6.22002757,13.3327124 6.37053242,13.1562744 6.39333332,12.9441667 C6.39683332,12.9325 6.4085,12.9278334 6.41083332,12.915 C6.5975,12.1426667 6.91016665,11.41 7.34066668,10.738 C7.36283335,10.7041667 7.36983335,10.6656667 7.38383332,10.6295 C7.39316665,10.6038333 7.40716665,10.5805 7.41183332,10.5536667 C7.41416665,10.542 7.413,10.5315 7.41416668,10.521 C7.43739661,10.4034073 7.41795577,10.2813851 7.35933332,10.1768333 L6.58466668,8.8375 L7.70816668,7.71516668 L9.06033332,8.498 C9.142,8.54466668 9.23066665,8.568 9.3205,8.568 C9.41966668,8.568 9.51416668,8.533 9.597,8.47933332 C9.62616668,8.46766665 9.65533332,8.47233332 9.68216668,8.456 C10.3447867,8.05381808 11.0675546,7.76037826 11.823,7.58683332 C11.8787618,7.57270113 11.9316546,7.54901778 11.9793333,7.51683332 C12.0305449,7.48507599 12.0752777,7.44390592 12.1111667,7.3955 C12.1301762,7.37181206 12.146969,7.34642758 12.1613333,7.31966668 C12.1846666,7.28233335 12.2208333,7.259 12.2336667,7.2135 L12.635,5.70616668 L14.2216667,5.70616668 L14.623,7.1995 C14.6346667,7.24616668 14.6755,7.27066668 14.6965,7.31033332 C14.7105,7.33366665 14.7256667,7.357 14.7431667,7.378 C14.7814639,7.4293205 14.8299133,7.47221015 14.8855,7.504 C14.9320476,7.53463829 14.9832734,7.55749288 15.0371667,7.57166668 C15.8421667,7.74666668 16.6051667,8.05583335 17.304,8.491 C17.3191667,8.50033332 17.339,8.49683332 17.3541667,8.505 C17.4359111,8.55806855 17.5308907,8.58716871 17.6283333,8.589 C17.7193013,8.58870796 17.8086032,8.56457231 17.8873333,8.519 L19.2395,7.73733332 L20.3618333,8.85733332 L19.5883333,10.199 C19.5056354,10.3458831 19.5012638,10.5242419 19.5766667,10.675 C19.5895,10.71 19.5965,10.7485 19.6175,10.7811667 C20.034,11.4426667 20.3373333,12.1613334 20.5193333,12.9161667 C20.5263333,12.9465 20.5543333,12.9628334 20.566,12.9896667 C20.6017182,13.1785127 20.7399348,13.3315864 20.9241667,13.3863333 L22.2926667,13.783 L22.2926667,15.3836667 L20.9241667,15.7803333 L20.9241667,15.7803333 Z M23.3333333,13.4831667 C23.3333333,13.4633334 23.324,13.4458334 23.3216667,13.4271667 C23.3422888,13.1853014 23.1902933,12.9621798 22.9576667,12.8928333 L21.4596667,12.4611667 C21.271858,11.7659931 20.9921107,11.0989939 20.6278333,10.4778333 L21.4631667,9.03116668 C21.5843951,8.81640792 21.5353627,8.5457495 21.3465,8.38716668 C21.3348333,8.37316668 21.329,8.3545 21.315,8.3405 L19.7575,6.78416668 C19.7423333,6.77016668 19.7236667,6.76316668 19.7073333,6.7515 C19.5480247,6.56446842 19.2785289,6.51653633 19.0645,6.63716668 L17.605,7.48183332 C16.961354,7.11207309 16.270647,6.83108089 15.5516667,6.6465 L15.1235,5.05166668 C15.0574683,4.8134563 14.830718,4.65639983 14.5845,4.67833332 C14.5658333,4.676 14.5495,4.66666668 14.5296667,4.66666668 L12.327,4.66666668 C12.306,4.66666668 12.2896667,4.676 12.2686667,4.67833332 C12.0233353,4.65912379 11.7986155,4.81593913 11.732,5.05283332 L11.3026667,6.664 C10.6197187,6.84607083 9.96296412,7.11504615 9.3485,7.46433332 L7.88316668,6.61616668 C7.66869898,6.49584546 7.39911051,6.54370717 7.23916668,6.7305 C7.224,6.74216668 7.20416668,6.748 7.19016668,6.76316668 L5.63266668,8.3195 C5.6175,8.3335 5.61283335,8.35216668 5.6,8.36733332 C5.41110448,8.52598245 5.36251103,8.79692774 5.4845,9.01133332 L6.31866668,10.4545 C5.94701139,11.0820708 5.66208717,11.7570979 5.47166668,12.4611667 L3.88383332,12.8905 C3.64730184,12.9566964 3.49080534,13.181171 3.5105,13.426 C3.50933332,13.4458333 3.5,13.4633333 3.5,13.4831667 L3.5,15.6835 C3.5,15.7033333 3.50933332,15.7208333 3.51166668,15.7406667 C3.4912612,15.9855802 3.64730568,16.2105973 3.88383332,16.2773333 L5.4705,16.7078333 C5.65716668,17.3915 5.9255,18.0471666 6.2825,18.6643333 L5.4495,20.0993333 C5.32855541,20.3129223 5.37655897,20.58233 5.56383332,20.741 C5.5755,20.7573333 5.58133332,20.776 5.5965,20.7911667 L7.154,22.3475 C7.17733332,22.3685 7.20533332,22.379 7.231,22.3965 C7.3224709,22.4975359 7.45066154,22.5576384 7.58683332,22.5633333 C7.67773854,22.5637268 7.76711779,22.5399728 7.84583332,22.4945 L9.29016668,21.6626667 C9.92483335,22.0301667 10.5968334,22.3136667 11.3026667,22.5026667 L11.732,24.1138333 C11.7938333,24.3471666 12.0038333,24.5 12.2336667,24.5 C12.2535,24.5 12.2721667,24.4941667 12.2908333,24.4918333 C12.3036666,24.493 12.3141666,24.5 12.3258333,24.5 L14.5296667,24.5 C14.5425,24.5 14.553,24.493 14.5658333,24.4918333 C14.5845,24.4941666 14.6031666,24.5 14.6206667,24.5 C14.855499,24.4992556 15.060868,24.3416468 15.1223333,24.115 L15.5516667,22.5225 C16.2497898,22.3431841 16.9216009,22.0737537 17.5501667,21.721 L19.0481667,22.5843333 C19.1298334,22.631 19.2185,22.6543333 19.306,22.6543333 C19.4430393,22.6484347 19.5720181,22.5879366 19.6641667,22.4863333 C19.6886667,22.4688333 19.7178334,22.4595 19.7388333,22.4361667 L21.2975,20.881 C21.3126667,20.8658333 21.3173333,20.8483333 21.3301667,20.8343333 C21.5190288,20.6745779 21.5670961,20.4028509 21.4445,20.188 L20.5986667,18.7296667 C20.9755,18.0938334 21.2636667,17.4183334 21.455,16.709 L22.9576667,16.2738333 C23.1902933,16.2044869 23.3422888,15.9813653 23.3216667,15.7395 C23.324,15.7196667 23.3333333,15.7033333 23.3333333,15.6835 L23.3333333,13.4831667 L23.3333333,13.4831667 Z" id="形状" fill="#FFFFFF"></path>
            </g>
        </g>
    </g>
</svg>