<?xml version="1.0" encoding="UTF-8"?>
<svg width="23px" height="22px" viewBox="0 0 23 22" version="1.1" xmlns="http://www.w3.org/2000/svg" xmlns:xlink="http://www.w3.org/1999/xlink">
    <!-- Generator: Sketch 63 (92445) - https://sketch.com -->
    <title>待付款</title>
    <desc>Created with Sketch.</desc>
    <defs>
        <linearGradient x1="50%" y1="-2.48949813e-15%" x2="50%" y2="100%" id="linearGradient-1">
            <stop stop-color="#87CAFF" offset="0%"></stop>
            <stop stop-color="#0091FF" offset="100%"></stop>
        </linearGradient>
    </defs>
    <g id="页面-2" stroke="none" stroke-width="1" fill="none" fill-rule="evenodd">
        <g id="切图" transform="translate(-40.000000, -271.000000)">
            <g id="待付款" transform="translate(40.000000, 271.000000)">
                <rect id="矩形" fill="#000000" fill-rule="nonzero" opacity="0" x="0" y="0" width="22" height="22"></rect>
                <path d="M19,4 L19,8 L15.5,8 C14.1745166,8 13.0899613,9.03153594 13.0053177,10.3356243 L13,10.5 C13,11.8807119 14.1192881,13 15.5,13 L15.5,13 L19,13 L19,16 C19,16.5522847 18.5522847,17 18,17 L4,17 C3.44771525,17 3,16.5522847 3,16 L3,5 C3,4.44771525 3.44771525,4 4,4 L19,4 Z" id="形状结合" fill="url(#linearGradient-1)"></path>
                <path d="M15.5,9 L20,9 L20,9 L20,12 L15.5,12 C14.6715729,12 14,11.3284271 14,10.5 C14,9.67157288 14.6715729,9 15.5,9 Z" id="矩形" fill="#0091FF"></path>
            </g>
        </g>
    </g>
</svg>