<?xml version="1.0" encoding="UTF-8"?>
<svg width="22px" height="22px" viewBox="0 0 22 22" version="1.1" xmlns="http://www.w3.org/2000/svg" xmlns:xlink="http://www.w3.org/1999/xlink">
    <!-- Generator: Sketch 63 (92445) - https://sketch.com -->
    <title>待收货</title>
    <desc>Created with Sketch.</desc>
    <defs>
        <linearGradient x1="50%" y1="-2.48949813e-15%" x2="50%" y2="100%" id="linearGradient-1">
            <stop stop-color="#87CAFF" offset="0%"></stop>
            <stop stop-color="#0091FF" offset="100%"></stop>
        </linearGradient>
    </defs>
    <g id="页面-2" stroke="none" stroke-width="1" fill="none" fill-rule="evenodd">
        <g id="切图" transform="translate(-118.000000, -271.000000)" fill-rule="nonzero">
            <g id="待收货" transform="translate(117.000000, 270.000000)">
                <rect id="矩形" fill="#000000" opacity="0" x="0" y="0" width="24" height="24"></rect>
                <path d="M19.29375,9 L16.5,9 L16.5,5.25 C16.5,4.8375 16.1625,4.5 15.75,4.5 L2.25,4.5 C1.8375,4.5 1.5,4.8375 1.5,5.25 L1.5,15.75 C1.5,16.1625 1.8375,16.5 2.25,16.5 L3,16.5 C3,18.15 4.35,19.5 6,19.5 C7.65,19.5 9,18.15 9,16.5 L15,16.5 C15,18.15 16.35,19.5 18,19.5 C19.65,19.5 21,18.15 21,16.5 L21.75,16.5 C22.1625,16.5 22.5,16.1625 22.5,15.75 L22.5,13.63125 C22.5,13.55625 22.48125,13.48125 22.44375,13.425 L19.6125,9.16875 C19.5375,9.05625 19.425,9 19.29375,9 Z M16.5,13.5 L16.5,10.5 L18.73125,10.5 C18.8625,10.5 18.975,10.55625 19.03125,10.66875 L21,13.5 L16.5,13.5 Z" id="形状" fill="url(#linearGradient-1)"></path>
                <path d="M8.21718662,16.925809 C8.37182997,16.1385337 8.10379279,15.4009451 7.60142384,14.8985762 C7.09905488,14.3962072 6.36146631,14.12817 5.57419102,14.2828134 C5.13219186,14.3656599 4.73134274,14.5868689 4.42106438,14.8971472 C4.10651537,15.2116962 3.88639628,15.6171225 3.80116511,16.0574836 C3.64692003,16.8427163 3.91495721,17.5803049 4.41732616,18.0826738 C4.91969512,18.5850428 5.65728369,18.85308 6.44455898,18.6984366 C6.88099984,18.6139671 7.27823086,18.3964918 7.58970509,18.0850176 C7.89466289,17.7800598 8.116874,17.3851844 8.21718662,16.925809 Z" id="路径" stroke="#0091FF" stroke-width="1.5" fill="#FFFFFF"></path>
                <path d="M20.2171866,16.925809 C20.37183,16.1385337 20.1037928,15.4009451 19.6014238,14.8985762 C19.0990549,14.3962072 18.3614663,14.12817 17.574191,14.2828134 C17.1321919,14.3656599 16.7313427,14.5868689 16.4210644,14.8971472 C16.1065154,15.2116962 15.8863963,15.6171225 15.8011651,16.0574836 C15.64692,16.8427163 15.9149572,17.5803049 16.4173262,18.0826738 C16.9196951,18.5850428 17.6572837,18.85308 18.444559,18.6984366 C18.8809998,18.6139671 19.2782309,18.3964918 19.5897051,18.0850176 C19.8946629,17.7800598 20.116874,17.3851844 20.2171866,16.925809 Z" id="路径" stroke="#0091FF" stroke-width="1.5" fill="#FFFFFF"></path>
            </g>
        </g>
    </g>
</svg>