<?xml version="1.0" encoding="UTF-8"?>
<svg width="16px" height="12px" viewBox="0 0 16 12" version="1.1" xmlns="http://www.w3.org/2000/svg" xmlns:xlink="http://www.w3.org/1999/xlink">
    <!-- Generator: Sketch 63 (92445) - https://sketch.com -->
    <title>发货</title>
    <desc>Created with Sketch.</desc>
    <defs>
        <linearGradient x1="50%" y1="-2.48949813e-15%" x2="50%" y2="100%" id="linearGradient-1">
            <stop stop-color="#87CAFF" offset="0%"></stop>
            <stop stop-color="#0091FF" offset="100%"></stop>
        </linearGradient>
    </defs>
    <g id="页面-2" stroke="none" stroke-width="1" fill="none" fill-rule="evenodd">
        <g id="切图" transform="translate(-857.000000, -308.000000)" fill-rule="nonzero">
            <g id="发货" transform="translate(855.000000, 304.000000)">
                <rect id="矩形" fill="#000000" opacity="0" x="0" y="0" width="20" height="20"></rect>
                <path d="M14.6521484,13.2373047 C15.4072266,13.2373047 16.0195312,13.8494141 16.0195312,14.6046875 C16.0195312,15.3597656 15.4074219,15.971875 14.6521484,15.971875 C13.8970703,15.971875 13.2849609,15.3597656 13.2849609,14.6046875 C13.2849609,13.8494141 13.8970703,13.2373047 14.6521484,13.2373047 Z M6.26933594,13.2373047 C7.02441406,13.2373047 7.63652344,13.8494141 7.63652344,14.6046875 C7.63652344,15.3597656 7.02441406,15.971875 6.26933594,15.971875 C5.51425781,15.971875 4.90195313,15.3597656 4.90195313,14.6046875 C4.90195313,13.8494141 5.5140625,13.2373047 6.26933594,13.2373047 Z M17.8054687,11.7037109 L17.8054687,13.5488281 C17.8054687,14.1265625 17.3371094,14.5943359 16.759375,14.5943359 L16.6867187,14.5943359 L16.6867187,14.5949219 C16.6867187,13.4800781 15.7814453,12.5763672 14.6666016,12.5763672 C13.5517578,12.5763672 12.6464844,13.4800781 12.6464844,14.5949219 L12.6464844,14.5943359 L11.8951172,14.5943359 L11.8951172,8.25 L16.1201172,8.25 L17.8054687,11.7037109 L17.8054687,11.7037109 Z M2.92949219,4.86074219 L2.92949219,14.5943359 L4.2421875,14.5943359 C4.25332031,13.4925781 5.15644531,12.5880859 6.26894531,12.5880859 C7.38144531,12.5880859 8.284375,13.4925781 8.29550781,14.5943359 L11.3107422,14.5943359 L11.3107422,4.86074219 L2.92949219,4.86074219 Z M9.28984375,9.06914063 L7.69199219,10.934375 C7.54414062,11.1070313 7.26152344,11.0023438 7.26152344,10.7751953 L7.26152344,9.86113281 L5.12792969,9.86113281 C4.99804688,9.86113281 4.89160156,9.75488281 4.89160156,9.62480469 L4.89160156,8.19492188 C4.89160156,8.06503906 4.99804688,7.95859375 5.12792969,7.95859375 L7.26152344,7.95859375 L7.26152344,7.04453125 C7.26152344,6.81738281 7.54433594,6.71269531 7.69199219,6.88535156 L9.28984375,8.75058594 C9.36835937,8.84238281 9.36835937,8.97753906 9.28984375,9.06914063 L9.28984375,9.06914063 Z" id="形状" fill="url(#linearGradient-1)"></path>
            </g>
        </g>
    </g>
</svg>