<?xml version="1.0" encoding="UTF-8"?>
<svg width="22px" height="22px" viewBox="0 0 22 22" version="1.1" xmlns="http://www.w3.org/2000/svg" xmlns:xlink="http://www.w3.org/1999/xlink">
    <!-- Generator: Sketch 63 (92445) - https://sketch.com -->
    <title>我的选中*</title>
    <desc>Created with Sketch.</desc>
    <g id="页面-2" stroke="none" stroke-width="1" fill="none" fill-rule="evenodd">
        <g id="切图" transform="translate(-299.000000, -647.000000)" fill="#0091FF">
            <g id="我的选中*" transform="translate(299.000000, 647.000000)">
                <g id="我的选中">
                    <polygon id="矩形" opacity="0.502418155" points="5.8481069 13.7421122 16.1830851 13.7421122 22 22 0 22"></polygon>
                    <path d="M11,0 C15.418278,0 19,3.581722 19,8 C19,12.418278 15.418278,16 11,16 C6.581722,16 3,12.418278 3,8 C3,3.581722 6.581722,0 11,0 Z M13.7921768,10.2012318 C13.3507438,9.8693351 12.7238363,9.95813179 12.3919396,10.3995647 L12.3919396,10.3995647 L12.2877466,10.5256394 C11.9595057,10.8874723 11.4940289,11.0994832 10.9918001,11.0994832 C10.4365997,11.0994832 9.92628046,10.8404308 9.59652331,10.4060017 L9.59652331,10.4060017 L9.51447654,10.3107983 C9.16720761,9.95535928 8.6014608,9.90585636 8.19539217,10.2140862 C7.7554845,10.5480019 7.66956101,11.1753097 8.00347669,11.6152174 C8.7074491,12.5426457 9.80438909,13.0994832 10.9918001,13.0994832 C12.1852994,13.0994832 13.2871912,12.5369045 13.9905097,11.6014689 C14.3224064,11.160036 14.2336097,10.5331284 13.7921768,10.2012318 Z" id="形状结合"></path>
                </g>
            </g>
        </g>
    </g>
</svg>