<?xml version="1.0" encoding="UTF-8"?>
<svg width="16px" height="24px" viewBox="0 0 16 24" version="1.1" xmlns="http://www.w3.org/2000/svg" xmlns:xlink="http://www.w3.org/1999/xlink">
    <!-- Generator: Sketch 63 (92445) - https://sketch.com -->
    <title>订单选中*</title>
    <desc>Created with Sketch.</desc>
    <g id="页面-2" stroke="none" stroke-width="1" fill="none" fill-rule="evenodd">
        <g id="切图" transform="translate(-176.000000, -645.000000)" fill="#0091FF">
            <g id="订单选中*" transform="translate(176.000000, 645.000000)">
                <path d="M12.2941176,2.26470588 L12.29,2.38370588 L16,2.38461538 L16,23.3846154 L0,23.3846154 L0,2.38461538 L3.29692539,2.38424719 C3.35671178,3.65423145 4.36409064,4.67629909 5.62787845,4.75926656 L5.79411765,4.76470588 L9.79411765,4.76470588 C11.1748295,4.76470588 12.2941176,3.64541776 12.2941176,2.26470588 Z M7.61538462,16.4615385 L4.69230769,16.4615385 C4.14002294,16.4615385 3.69230769,16.9092537 3.69230769,17.4615385 C3.69230769,18.0138232 4.14002294,18.4615385 4.69230769,18.4615385 L4.69230769,18.4615385 L7.61538462,18.4615385 C8.16766937,18.4615385 8.61538462,18.0138232 8.61538462,17.4615385 C8.61538462,16.9092537 8.16766937,16.4615385 7.61538462,16.4615385 L7.61538462,16.4615385 Z M11.3076923,12.4615385 L4.69230769,12.4615385 C4.14002294,12.4615385 3.69230769,12.9092537 3.69230769,13.4615385 C3.69230769,14.0138232 4.14002294,14.4615385 4.69230769,14.4615385 L4.69230769,14.4615385 L11.3076923,14.4615385 C11.8599771,14.4615385 12.3076923,14.0138232 12.3076923,13.4615385 C12.3076923,12.9092537 11.8599771,12.4615385 11.3076923,12.4615385 L11.3076923,12.4615385 Z M11.3076923,8.46153846 L4.69230769,8.46153846 C4.14002294,8.46153846 3.69230769,8.90925371 3.69230769,9.46153846 C3.69230769,10.0138232 4.14002294,10.4615385 4.69230769,10.4615385 L4.69230769,10.4615385 L11.3076923,10.4615385 C11.8599771,10.4615385 12.3076923,10.0138232 12.3076923,9.46153846 C12.3076923,8.90925371 11.8599771,8.46153846 11.3076923,8.46153846 L11.3076923,8.46153846 Z" id="形状结合"></path>
                <rect id="矩形" opacity="0.504673549" x="4.70588235" y="0" width="6" height="3.76470588" rx="1.88235294"></rect>
            </g>
        </g>
    </g>
</svg>