<?xml version="1.0" encoding="UTF-8"?>
<svg width="15px" height="21px" viewBox="0 0 15 21" version="1.1" xmlns="http://www.w3.org/2000/svg" xmlns:xlink="http://www.w3.org/1999/xlink">
    <!-- Generator: Sketch 63 (92445) - https://sketch.com -->
    <title>订单未选中*</title>
    <desc>Created with Sketch.</desc>
    <g id="页面-2" stroke="none" stroke-width="1" fill="none" fill-rule="evenodd">
        <g id="切图" transform="translate(-177.000000, -703.000000)">
            <g id="订单未选中*" transform="translate(178.000000, 704.000000)">
                <path d="M1,3 L5.03263491,3 L12,3 C12.5522847,3 13,3.44771525 13,4 L13,18 C13,18.5522847 12.5522847,19 12,19 L1,19 C0.44771525,19 6.76353751e-17,18.5522847 0,18 L0,4 C-6.76353751e-17,3.44771525 0.44771525,3 1,3 Z" id="矩形" stroke="#333333"></path>
                <path d="M4,1.5 C4,0.671572875 4.59695367,0 5.33333333,0 L7.66666667,0 C8.40304633,0 9,0.671572875 9,1.5 C9,2.32842712 8.40304633,3 7.66666667,3" id="路径" stroke="#333333" stroke-linecap="round" stroke-linejoin="round"></path>
                <rect id="矩形" fill="#999999" x="3" y="7" width="7" height="1" rx="0.5"></rect>
                <rect id="矩形备份-2" fill="#999999" x="3" y="10" width="7" height="1" rx="0.5"></rect>
                <rect id="矩形备份-3" fill="#999999" x="3" y="13" width="4" height="1" rx="0.5"></rect>
            </g>
        </g>
    </g>
</svg>