<?xml version="1.0" encoding="UTF-8"?>
<svg width="12px" height="12px" viewBox="0 0 12 12" version="1.1" xmlns="http://www.w3.org/2000/svg" xmlns:xlink="http://www.w3.org/1999/xlink">
    <!-- Generator: Sketch 63 (92445) - https://sketch.com -->
    <title>注意</title>
    <desc>Created with Sketch.</desc>
    <g id="页面-2" stroke="none" stroke-width="1" fill="none" fill-rule="evenodd">
        <g id="切图" transform="translate(-64.000000, -371.000000)" fill-rule="nonzero">
            <g id="注意" transform="translate(62.000000, 369.000000)">
                <rect id="矩形" fill="#000000" opacity="0" x="0" y="0" width="16" height="16"></rect>
                <path d="M8.84,10.11 L8.84,9.88 C8.84,9.61 8.9,9.37 9.03,9.15 C9.13,8.97 9.28,8.79 9.5,8.6 C9.94,8.21 10.21,7.95 10.31,7.83 C10.56,7.5 10.69,7.11 10.69,6.66 C10.69,6.06 10.5,5.59 10.13,5.25 C9.74,4.89 9.23,4.72 8.59,4.72 C7.87,4.72 7.31,4.94 6.91,5.38 C6.51,5.8 6.32,6.36 6.32,7.06 L7.11,7.06 C7.11,6.57 7.22,6.19 7.44,5.91 C7.68,5.58 8.05,5.42 8.55,5.42 C8.97,5.42 9.3,5.53 9.53,5.77 C9.75,5.99 9.87,6.3 9.87,6.7 C9.87,6.98 9.77,7.24 9.57,7.49 C9.51,7.57 9.39,7.69 9.23,7.85 C8.69,8.33 8.36,8.71 8.22,9.01 C8.1,9.26 8.04,9.55 8.04,9.88 L8.04,10.11 L8.84,10.11 Z M8.44,12 C8.61,12 8.75,11.94 8.87,11.83 C8.99,11.72 9.05,11.58 9.05,11.4 C9.05,11.23 8.99,11.09 8.88,10.98 C8.76,10.86 8.61,10.81 8.44,10.81 C8.27,10.81 8.13,10.86 8.01,10.98 C7.89,11.09 7.84,11.23 7.84,11.4 C7.84,11.57 7.89,11.71 8.01,11.83 C8.13,11.94 8.27,12 8.44,12 Z" id="？" fill="#0091FF"></path>
                <path d="M13.6366667,8.96666667 C13.5588619,8.95216469 13.4784942,8.96957112 13.4136622,9.01496604 C13.3488303,9.06036097 13.3049849,9.12992774 13.292,9.208 C12.8632437,11.6191221 10.7649435,13.3741714 8.316,13.37 C5.52866667,13.37 3.26133333,11.1033333 3.26133333,8.31533333 C3.25924962,6.09181372 4.71081445,4.12819571 6.83717232,3.47808341 C8.96353019,2.82797112 11.2649869,3.64414096 12.5066667,5.48866667 C12.9017508,6.07106334 13.1693692,6.73034052 13.292,7.42333333 C13.3302029,7.57497912 13.4791301,7.67129708 13.6331024,7.6439398 C13.7870748,7.61658253 13.8937073,7.47485761 13.8773333,7.31933333 C13.740768,6.54440752 13.441775,5.80714894 13,5.156 C11.9499871,3.59869532 10.1942236,2.66558672 8.316,2.66666574 C6.81765654,2.66613599 5.3805192,3.26106996 4.32096779,4.32049633 C3.26141639,5.37992269 2.66631282,6.81698981 2.66666651,8.31533333 C2.66666651,11.4306667 5.20133334,13.9646749 8.316,13.9646749 C11.0533823,13.9692992 13.3986669,12.0072109 13.8773333,9.312 C13.9060308,9.1505938 13.798671,8.99641329 13.6373333,8.96733333" id="路径" fill="#0091FF"></path>
            </g>
        </g>
    </g>
</svg>