<?xml version="1.0" standalone="no"?><!DOCTYPE svg PUBLIC "-//W3C//DTD SVG 1.1//EN" "http://www.w3.org/Graphics/SVG/1.1/DTD/svg11.dtd"><svg t="1520469798886" class="icon" style="" viewBox="0 0 1024 1024" version="1.1" xmlns="http://www.w3.org/2000/svg" p-id="1763" xmlns:xlink="http://www.w3.org/1999/xlink" width="128" height="128"><defs><style type="text/css"></style></defs><path d="M685.2 129.6l217.8 217.8c7.2 7.2 16.6 10.8 26.2 10.8 9.4 0 19-3.6 26.2-10.8 14.4-14.4 14.4-37.8 0-52.2L674.4 14.2c-14.4-14.4-37.8-14.4-52.2 0-6.4 6.4-9.8 14.4-10.6 22.6-0.2 1.2-0.2 2.4-0.2 3.6v946c0 20.4 16.6 37 37 37s37-16.6 37-37V129.6h-0.2z m-332.6 882l-280-280c-14.4-14.4-14.4-37.8 0-52.2 14.4-14.4 37.8-14.4 52.2 0l217.6 217.8V40.4c0-20.4 16.6-37 37-37s37 16.6 37 37v946c0 20.4-16.6 37-37 37-10.6-0.2-20.2-4.6-26.8-11.8z" fill="" p-id="1764"></path></svg>