<?xml version="1.0" encoding="UTF-8"?>
<svg width="16px" height="16px" viewBox="0 0 16 16" version="1.1" xmlns="http://www.w3.org/2000/svg" xmlns:xlink="http://www.w3.org/1999/xlink">
    <!-- Generator: Sketch 63 (92445) - https://sketch.com -->
    <title>审批模型-活动备份 3</title>
    <desc>Created with Sketch.</desc>
    <g id="页面-2" stroke="none" stroke-width="1" fill="none" fill-rule="evenodd">
        <g id="切图" transform="translate(-169.000000, -417.000000)" fill-rule="nonzero">
            <g id="审批模型-活动备份-3" transform="translate(169.000000, 417.000000)">
                <rect id="矩形" fill="#000000" opacity="0" x="0" y="0" width="16" height="16"></rect>
                <path d="M3.62667187,4.10667187 L12.3733437,4.10667187 C12.5866766,4.10667187 12.6933437,3.89333906 12.6400109,3.73333906 L12.0000109,2.45333906 C11.8933442,2.18667187 11.5733437,2.08000625 11.3066781,2.18667187 L8.26667812,3.78667187 C8.10667812,3.84000516 8.00001094,3.84000516 7.84001094,3.78667187 L4.8,2.18667187 C4.53333281,2.08000516 4.21333281,2.18667187 4.10666719,2.45333906 L3.41332812,3.73332812 C3.30666141,3.89332812 3.41332812,4.10667187 3.62666094,4.10667187 L3.62667187,4.10667187 Z M2.66666094,8.64 L2.66666094,12.8 C2.66666094,13.3866672 3.14667187,13.8666672 3.73333906,13.8666672 L7.46666719,13.8666672 L7.46666719,7.57332812 L3.73332812,7.57332812 C3.14666094,7.57332812 2.66666094,8.05332813 2.66666094,8.63999531 L2.66666094,8.64 Z M12.2666719,7.57332812 L8.53334375,7.57332812 L8.53334375,13.8666719 L12.2666719,13.8666719 C12.8533391,13.8666719 13.3333391,13.3866719 13.3333391,12.8000047 L13.3333391,8.64000469 C13.3333391,8.0533375 12.8533391,7.57332812 12.2666719,7.57332812 L12.2666719,7.57332812 Z M13.3333281,4.63999531 L8.53332812,4.63999531 L8.53332812,6.77332812 L13.3333281,6.77332812 C13.6533281,6.77332812 13.8666609,6.55999531 13.8666609,6.23999531 L13.8666609,5.17332812 C13.8666609,4.90666094 13.6533281,4.63999531 13.3333281,4.63999531 L13.3333281,4.63999531 Z M2.13332812,5.17332812 L2.13332812,6.23999531 C2.13332812,6.55999531 2.34666094,6.77332813 2.66666094,6.77332813 L7.46666094,6.77332813 L7.46666094,4.64 L2.66667187,4.64 C2.34667187,4.64 2.13332812,4.90666719 2.13332812,5.17333281 L2.13332812,5.17332812 Z" id="形状" fill="#F7B500"></path>
            </g>
        </g>
    </g>
</svg>