<?xml version="1.0" encoding="UTF-8"?>
<svg width="20px" height="20px" viewBox="0 0 20 20" version="1.1" xmlns="http://www.w3.org/2000/svg" xmlns:xlink="http://www.w3.org/1999/xlink">
    <!-- Generator: Sketch 63 (92445) - https://sketch.com -->
    <title>209电话</title>
    <desc>Created with Sketch.</desc>
    <g id="页面-2" stroke="none" stroke-width="1" fill="none" fill-rule="evenodd">
        <g id="切图" transform="translate(-212.000000, -393.000000)" fill-rule="nonzero">
            <g id="209电话" transform="translate(209.000000, 390.000000)">
                <rect id="矩形" fill="#000000" opacity="0" x="0" y="0" width="26" height="26"></rect>
                <path d="M7.1703125,11.6796875 C8.734375,14.746875 11.253125,17.265625 14.3203125,18.8296875 L16.696875,16.453125 C16.98125,16.16875 17.428125,16.0671875 17.79375,16.1890625 C19.0125,16.5953125 20.3328125,16.7984375 21.6734375,16.7984375 C22.2625,16.7984375 22.75,17.2859375 22.75,17.875 L22.75,21.653125 C22.75,22.2421875 22.2625,22.7297249 21.6734375,22.7297249 C11.496875,22.75 3.25,14.503125 3.25,4.3265625 C3.25,3.7375 3.7375,3.25 4.3265625,3.25 L8.125,3.25 C8.7140625,3.25 9.2015625,3.7171875 9.2015625,4.30625 C9.2015625,5.6671875 9.425,6.9671875 9.8109375,8.1859375 C9.9328125,8.571875 9.8515625,8.978125 9.546875,9.2828125 L7.1703125,11.6796875 Z" id="路径" fill="#44BB00"></path>
            </g>
        </g>
    </g>
</svg>