<?xml version="1.0" encoding="UTF-8"?>
<svg width="16px" height="16px" viewBox="0 0 16 16" version="1.1" xmlns="http://www.w3.org/2000/svg" xmlns:xlink="http://www.w3.org/1999/xlink">
    <!-- Generator: Sketch 63 (92445) - https://sketch.com -->
    <title>411地图</title>
    <desc>Created with Sketch.</desc>
    <g id="页面-2" stroke="none" stroke-width="1" fill="none" fill-rule="evenodd">
        <g id="切图" transform="translate(-228.000000, -429.000000)">
            <g id="411地图" transform="translate(228.000000, 429.000000)">
                <rect id="矩形" fill="#000000" fill-rule="nonzero" opacity="0" x="0" y="0" width="16" height="16"></rect>
                <path d="M1.70919651,8.78444761 L4.29013517,8 L4.29013517,8 L7.99375,11.5133886 L10.5067341,9 L13.7827598,8.27090323 C14.3218549,8.15092476 14.8561397,8.49068598 14.9761182,9.02978116 C14.9919916,9.10110459 15,9.17395295 15,9.2470214 L15,12.1980891 C15,12.6666689 14.6746295,13.0724129 14.2172402,13.1742073 L10.5067341,14 L10.5067341,14 L5.5875,13 L2.21298225,13.7355897 C1.67336908,13.8532165 1.14057078,13.511129 1.02294393,12.9715159 C1.0076921,12.9015481 1,12.8301444 1,12.7585336 L1,9.74123041 C1,9.30095702 1.2879505,8.91248065 1.70919651,8.78444761 Z" id="矩形" fill="#333333"></path>
                <path d="M8,1 C10.2125,1 12,2.7875 12,5 C12,6.1 11.5625,7.0875 10.8375,7.8125 L8,10.65 L5.1625,7.8125 C4.45,7.0875 4,6.1 4,5 C4,2.7875 5.8,1 8,1 Z M8.0125,3.025 C7.4625,3.025 7.0125,3.475 7.0125,4.025 C7.0125,4.575 7.4625,5.025 8.0125,5.025 C8.5625,5.025 9.0125,4.5875 9.0125,4.025 C9.0125,3.475 8.5625,3.025 8.0125,3.025 Z" id="形状结合" fill="#333333" fill-rule="nonzero"></path>
            </g>
        </g>
    </g>
</svg>