<?xml version="1.0" encoding="UTF-8"?>
<svg width="16px" height="16px" viewBox="0 0 16 16" version="1.1" xmlns="http://www.w3.org/2000/svg" xmlns:xlink="http://www.w3.org/1999/xlink">
    <!-- Generator: Sketch 63 (92445) - https://sketch.com -->
    <title>209电话备份</title>
    <desc>Created with Sketch.</desc>
    <g id="页面-2" stroke="none" stroke-width="1" fill="none" fill-rule="evenodd">
        <g id="切图" transform="translate(-203.000000, -429.000000)" fill-rule="nonzero">
            <g id="209电话备份" transform="translate(203.000000, 429.000000)">
                <rect id="矩形" fill="#000000" opacity="0" x="0" y="0" width="16" height="16"></rect>
                <path d="M4.4125,7.1875 C5.375,9.075 6.925,10.625 8.8125,11.5875 L10.275,10.125 C10.45,9.95 10.725,9.8875 10.95,9.9625 C11.7,10.2125 12.5125,10.3375 13.3375,10.3375 C13.7,10.3375 14,10.6375 14,11 L14,13.325 C14,13.6875 13.7,13.987523 13.3375,13.987523 C7.075,14 2,8.925 2,2.6625 C2,2.3 2.3,2 2.6625,2 L5,2 C5.3625,2 5.6625,2.2875 5.6625,2.65 C5.6625,3.4875 5.8,4.2875 6.0375,5.0375 C6.1125,5.275 6.0625,5.525 5.875,5.7125 L4.4125,7.1875 Z" id="路径" fill="#323233"></path>
            </g>
        </g>
    </g>
</svg>