<?xml version="1.0" encoding="UTF-8"?>
<svg width="12px" height="19px" viewBox="0 0 12 19" version="1.1" xmlns="http://www.w3.org/2000/svg" xmlns:xlink="http://www.w3.org/1999/xlink">
    <!-- Generator: Sketch 63 (92445) - https://sketch.com -->
    <title>手机备份@2x</title>
    <desc>Created with Sketch.</desc>
    <g id="页面-2" stroke="none" stroke-width="1" fill="none" fill-rule="evenodd">
        <g id="切图" transform="translate(-847.000000, -271.000000)">
            <g id="手机备份" transform="translate(847.000000, 271.000000)">
                <path d="M12,1.1875 C12,0.514583327 11.5411765,0 10.9411765,0 L1.05882353,0 C0.45882354,0 0,0.514583327 0,1.1875 L0,17.8125 C0,18.4854167 0.458823523,19 1.05882353,19 L10.9411765,19 C11.5411765,19 12,18.4854167 12,17.8125 L12,1.1875 Z M11,17.55 C11,17.775 10.7333333,18 10.5666667,18 L1.23333333,18 C1.03333333,18 1,17.7375 1,17.55 L1,15 L11,15 L11,17.55 L11,17.55 Z M11,14 L1,14 L1,1.30588234 C1,1.07647058 1.03333333,1 1.23333333,1 L10.5666667,1 C10.7333333,1 11,1.07647059 11,1.30588234 L11,14 L11,14 Z" id="形状" fill="#666666" fill-rule="nonzero"></path>
                <rect id="矩形" fill="#CCCCCC" x="5" y="16" width="2" height="1" rx="0.5"></rect>
            </g>
        </g>
    </g>
</svg>